<svg xmlns="http://www.w3.org/2000/svg" xmlns:xlink="http://www.w3.org/1999/xlink" contentStyleType="text/css" data-diagram-type="DESCRIPTION" height="931px" preserveAspectRatio="none" style="width:950px;height:931px;background:#FFFFFF;" version="1.1" viewBox="0 0 950 931" width="950px" zoomAndPan="magnify"><?plantuml 1.2026.6?><defs/><g><!--cluster Sistema de Gesti?n Econ?mica (SGE)--><g class="cluster" data-qualified-name="Sistema de Gesti.n Econ.mica .SGE." data-source-line="21" id="ent0003"><rect fill="none" height="798" rx="2.5" ry="2.5" style="stroke:#181818;stroke-width:1;" width="759" x="175" y="12"/><text fill="#000000" font-family="sans-serif" font-size="14" font-weight="700" lengthAdjust="spacing" textLength="251.2891" x="428.8555" y="28.5332">Sistema de Gesti&#243;n Econ&#243;mica (SGE)</text></g><!--cluster N?cleo financiero (Must)--><g class="cluster" data-qualified-name="Sistema de Gesti.n Econ.mica .SGE..N.cleo financiero .Must." data-source-line="22" id="ent0004"><rect fill="none" height="496" rx="2.5" ry="2.5" style="stroke:#181818;stroke-width:1;" width="200" x="183" y="40"/><text fill="#000000" font-family="sans-serif" font-size="14" font-weight="700" lengthAdjust="spacing" textLength="163.3447" x="201.3276" y="56.5332">N&#250;cleo financiero (Must)</text></g><!--cluster Reportes (Should/Could)--><g class="cluster" data-qualified-name="Sistema de Gesti.n Econ.mica .SGE..Reportes .Should.Could." data-source-line="32" id="ent0012"><rect fill="none" height="162" rx="2.5" ry="2.5" style="stroke:#181818;stroke-width:1;" width="180" x="193" y="544"/><text fill="#000000" font-family="sans-serif" font-size="14" font-weight="700" lengthAdjust="spacing" textLength="164.876" x="200.562" y="560.5332">Reportes (Should/Could)</text></g><!--cluster Captura por IA (Could)--><g class="cluster" data-qualified-name="Sistema de Gesti.n Econ.mica .SGE..Captura por IA .Could." data-source-line="37" id="ent0015"><rect fill="none" height="88" rx="2.5" ry="2.5" style="stroke:#181818;stroke-width:1;" width="739" x="187" y="714"/><text fill="#000000" font-family="sans-serif" font-size="14" font-weight="700" lengthAdjust="spacing" textLength="150.0967" x="481.4517" y="730.5332">Captura por IA (Could)</text></g><!--entity admin--><g class="entity" data-qualified-name="admin" data-source-line="18" id="ent0001"><ellipse cx="49.1826" cy="323.5" fill="#F1F1F1" rx="8" ry="8" style="stroke:#181818;stroke-width:0.5;"/><path d="M49.1826,331.5 L49.1826,358.5 M36.1826,339.5 L62.1826,339.5 M49.1826,358.5 L36.1826,373.5 M49.1826,358.5 L62.1826,373.5" fill="none" style="stroke:#181818;stroke-width:0.5;"/><text fill="#000000" font-family="sans-serif" font-size="14" lengthAdjust="spacing" textLength="86.3652" x="6" y="389.5332">Administrador</text></g><!--entity api--><g class="entity" data-qualified-name="api" data-source-line="19" id="ent0002"><ellipse cx="827.3447" cy="844.6094" fill="#F1F1F1" rx="8" ry="8" style="stroke:#181818;stroke-width:0.5;"/><path d="M827.3447,852.6094 L827.3447,879.6094 M814.3447,860.6094 L840.3447,860.6094 M827.3447,879.6094 L814.3447,894.6094 M827.3447,879.6094 L840.3447,894.6094" fill="none" style="stroke:#181818;stroke-width:0.5;"/><text fill="#000000" font-family="sans-serif" font-size="14" lengthAdjust="spacing" textLength="39.6826" x="793.5" y="910.6426">API IA</text><text fill="#000000" font-family="sans-serif" font-size="14" lengthAdjust="spacing" textLength="67.6895" x="793.5" y="928.252">Multimodal</text><text fill="#000000" font-family="sans-serif" font-size="14" font-style="italic" lengthAdjust="spacing" textLength="63.8066" x="795.4414" y="833.0332">&#171;sistema&#187;</text></g><!--entity UC07--><g class="entity" data-qualified-name="Sistema de Gesti.n Econ.mica .SGE..N.cleo financiero .Must..UC07" data-source-line="23" id="ent0005"><ellipse cx="282.8798" cy="86.876" fill="#F1F1F1" rx="79.8798" ry="18.376" style="stroke:#181818;stroke-width:0.5;"/><text fill="#000000" font-family="sans-serif" font-size="14" lengthAdjust="spacing" textLength="126.0547" x="219.8525" y="92.1807">UC-07: Autenticarse</text></g><!--entity UC01--><g class="entity" data-qualified-name="Sistema de Gesti.n Econ.mica .SGE..N.cleo financiero .Must..UC01" data-source-line="24" id="ent0006"><ellipse cx="283.0587" cy="144.8117" fill="#F1F1F1" rx="92.0587" ry="20.8117" style="stroke:#181818;stroke-width:0.5;"/><text fill="#000000" font-family="sans-serif" font-size="14" lengthAdjust="spacing" textLength="154.834" x="205.6417" y="150.1164">UC-01: Registrar ingreso</text></g><!--entity UC02--><g class="entity" data-qualified-name="Sistema de Gesti.n Econ.mica .SGE..N.cleo financiero .Must..UC02" data-source-line="25" id="ent0007"><ellipse cx="283.2102" cy="205.042" fill="#F1F1F1" rx="90.7102" ry="20.542" style="stroke:#181818;stroke-width:0.5;"/><text fill="#000000" font-family="sans-serif" font-size="14" lengthAdjust="spacing" textLength="151.7236" x="207.3484" y="210.3467">UC-02: Registrar egreso</text></g><!--entity UC04--><g class="entity" data-qualified-name="Sistema de Gesti.n Econ.mica .SGE..N.cleo financiero .Must..UC04" data-source-line="26" id="ent0008"><ellipse cx="283.1323" cy="269.998" fill="#F1F1F1" rx="74.1323" ry="25.998" style="stroke:#181818;stroke-width:0.5;"/><text fill="#000000" font-family="sans-serif" font-size="14" lengthAdjust="spacing" textLength="108.9307" x="228.667" y="269.3149">UC-04: Gestionar</text><text fill="#000000" font-family="sans-serif" font-size="14" lengthAdjust="spacing" textLength="65.3721" x="250.4463" y="286.9242">categor&#237;as</text></g><!--entity UC05--><g class="entity" data-qualified-name="Sistema de Gesti.n Econ.mica .SGE..N.cleo financiero .Must..UC05" data-source-line="27" id="ent0009"><ellipse cx="283.2419" cy="340.0482" fill="#F1F1F1" rx="72.2419" ry="25.5482" style="stroke:#181818;stroke-width:0.5;"/><text fill="#000000" font-family="sans-serif" font-size="14" lengthAdjust="spacing" textLength="108.1514" x="229.1662" y="340.0746">UC-05: Consultar</text><text fill="#000000" font-family="sans-serif" font-size="14" lengthAdjust="spacing" textLength="48.2412" x="259.1213" y="357.684">historial</text></g><!--entity UC06--><g class="entity" data-qualified-name="Sistema de Gesti.n Econ.mica .SGE..N.cleo financiero .Must..UC06" data-source-line="28" id="ent0010"><ellipse cx="282.77" cy="428.8189" fill="#F1F1F1" rx="90.27" ry="25.3189" style="stroke:#181818;stroke-width:0.5;"/><text fill="#000000" font-family="sans-serif" font-size="14" lengthAdjust="spacing" textLength="137.71" x="213.915" y="429.2154">UC-06: Editar/eliminar</text><text fill="#000000" font-family="sans-serif" font-size="14" lengthAdjust="spacing" textLength="46.6826" x="259.4286" y="446.8247">registro</text></g><!--entity UC03--><g class="entity" data-qualified-name="Sistema de Gesti.n Econ.mica .SGE..N.cleo financiero .Must..UC03" data-source-line="29" id="ent0011"><ellipse cx="283.0421" cy="499.9369" fill="#F1F1F1" rx="78.0421" ry="27.4369" style="stroke:#181818;stroke-width:0.5;"/><text fill="#000000" font-family="sans-serif" font-size="14" lengthAdjust="spacing" textLength="108.1514" x="228.9664" y="497.1031">UC-03: Consultar</text><text fill="#000000" font-family="sans-serif" font-size="14" lengthAdjust="spacing" textLength="99.6338" x="233.2252" y="514.7124">balance general</text></g><!--entity UC08--><g class="entity" data-qualified-name="Sistema de Gesti.n Econ.mica .SGE..Reportes .Should.Could..UC08" data-source-line="33" id="ent0013"><ellipse cx="283.2234" cy="598.2109" fill="#F1F1F1" rx="68.2234" ry="25.7109" style="stroke:#181818;stroke-width:0.5;"/><text fill="#000000" font-family="sans-serif" font-size="14" lengthAdjust="spacing" textLength="101.1445" x="232.6511" y="597.9782">UC-08: Exportar</text><text fill="#000000" font-family="sans-serif" font-size="14" lengthAdjust="spacing" textLength="51.3584" x="257.5442" y="615.5876">reportes</text></g><!--entity UC12--><g class="entity" data-qualified-name="Sistema de Gesti.n Econ.mica .SGE..Reportes .Should.Could..UC12" data-source-line="34" id="ent0014"><ellipse cx="283.0692" cy="669.7714" fill="#F1F1F1" rx="79.0692" ry="27.7714" style="stroke:#181818;stroke-width:0.5;"/><text fill="#000000" font-family="sans-serif" font-size="14" lengthAdjust="spacing" textLength="108.1514" x="228.9935" y="666.4586">UC-12: Consultar</text><text fill="#000000" font-family="sans-serif" font-size="14" lengthAdjust="spacing" textLength="105.8271" x="230.1556" y="684.068">reportes visuales</text></g><!--entity UC09--><g class="entity" data-qualified-name="Sistema de Gesti.n Econ.mica .SGE..Captura por IA .Could..UC09" data-source-line="38" id="ent0016"><ellipse cx="283.0696" cy="768.0564" fill="#F1F1F1" rx="88.0696" ry="26.0564" style="stroke:#181818;stroke-width:0.5;"/><text fill="#000000" font-family="sans-serif" font-size="14" lengthAdjust="spacing" textLength="129.9443" x="218.0974" y="767.2827">UC-09: Capturar foto</text><text fill="#000000" font-family="sans-serif" font-size="14" lengthAdjust="spacing" textLength="80.1787" x="242.9802" y="784.892">de anotaci&#243;n</text></g><!--entity UC10--><g class="entity" data-qualified-name="Sistema de Gesti.n Econ.mica .SGE..Captura por IA .Could..UC10" data-source-line="39" id="ent0017"><ellipse cx="556.0922" cy="767.7547" fill="#F1F1F1" rx="86.0922" ry="25.2547" style="stroke:#181818;stroke-width:0.5;"/><text fill="#000000" font-family="sans-serif" font-size="14" lengthAdjust="spacing" textLength="131.4961" x="490.3441" y="768.256">UC-10: Extraer datos</text><text fill="#000000" font-family="sans-serif" font-size="14" lengthAdjust="spacing" textLength="39.6895" x="536.2474" y="785.8653">con IA</text></g><!--entity UC11--><g class="entity" data-qualified-name="Sistema de Gesti.n Econ.mica .SGE..Captura por IA .Could..UC11" data-source-line="40" id="ent0018"><ellipse cx="827.4357" cy="767.9875" fill="#F1F1F1" rx="90.4357" ry="25.4875" style="stroke:#181818;stroke-width:0.5;"/><text fill="#000000" font-family="sans-serif" font-size="14" lengthAdjust="spacing" textLength="136.9375" x="758.967" y="768.1113">UC-11: Corregir datos</text><text fill="#000000" font-family="sans-serif" font-size="14" lengthAdjust="spacing" textLength="57.5859" x="798.6427" y="785.7207">extra&#237;dos</text></g><g class="link" data-entity-1="ent0001" data-entity-2="ent0005" data-link-type="dependency" id="lnk19"><polygon fill="#181818" points="202.9678,101.4521,193.1434,100.7589,198.2672,103.1562,195.8699,108.2799,202.9678,101.4521" style="stroke:#181818;stroke-width:1;stroke-linejoin:miter;stroke-miterlimit:10;"/><path d="M57.9226,314.9787 C71.3955,259.8319 104.4758,160.7277 175,115 C183.5391,109.4633 188.428,106.7231 198.2672,103.1562" fill="none" style="stroke:#181818;stroke-width:1;"/></g><g class="link" data-entity-1="ent0001" data-entity-2="ent0006" data-link-type="dependency" id="lnk20"><polygon fill="#181818" points="191.5738,166.1183,181.7253,166.204,187.0226,168.1887,185.0379,173.4859,191.5738,166.1183" style="stroke:#181818;stroke-width:1;stroke-linejoin:miter;stroke-miterlimit:10;"/><path d="M66.1323,314.9199 C85.5203,273.1675 122.1795,208.4871 175,175 C180.2141,171.6944 181.2453,170.8167 187.0226,168.1887" fill="none" style="stroke:#181818;stroke-width:1;"/></g><g class="link" data-entity-1="ent0001" data-entity-2="ent0007" data-link-type="dependency" id="lnk21"><polygon fill="#181818" points="194.6825,225.5537,184.8385,225.2439,190.0518,227.4397,187.8561,232.653,194.6825,225.5537" style="stroke:#181818;stroke-width:1;stroke-linejoin:miter;stroke-miterlimit:10;"/><path d="M82.0285,314.7702 C105.2986,288.6629 138.9268,255.5147 175,235 C181.2051,231.4712 183.221,230.2217 190.0518,227.4397" fill="none" style="stroke:#181818;stroke-width:1;"/></g><g class="link" data-entity-1="ent0001" data-entity-2="ent0011" data-link-type="dependency" id="lnk22"><polygon fill="#181818" points="204.72,510.0232,195.6919,506.0872,199.7201,510.0587,195.7486,514.0869,204.72,510.0232" style="stroke:#181818;stroke-width:1;stroke-linejoin:miter;stroke-miterlimit:10;"/><path d="M56.752,393.2176 C64.2294,423.8046 79.5207,464.5751 110,486 C137.0838,505.0381 167.8328,510.2849 199.7201,510.0587" fill="none" style="stroke:#181818;stroke-width:1;"/></g><g class="link" data-entity-1="ent0001" data-entity-2="ent0008" data-link-type="dependency" id="lnk23"><polygon fill="#181818" points="208.9983,293.2578,199.1945,292.3173,204.2562,294.8429,201.7306,299.9046,208.9983,293.2578" style="stroke:#181818;stroke-width:1;stroke-linejoin:miter;stroke-miterlimit:10;"/><path d="M92.0099,336.8364 C116.159,327.1452 147.1403,315.0077 175,305 C185.9445,301.0685 192.8396,298.659 204.2562,294.8429" fill="none" style="stroke:#181818;stroke-width:1;"/></g><g class="link" data-entity-1="ent0001" data-entity-2="ent0009" data-link-type="dependency" id="lnk24"><polygon fill="#181818" points="210.6983,344.3027,201.4737,340.8521,205.7074,344.6039,201.9556,348.8375,210.6983,344.3027" style="stroke:#181818;stroke-width:1;stroke-linejoin:miter;stroke-miterlimit:10;"/><path d="M92.0134,351.4647 C125.0497,349.4711 166.8359,346.9496 205.7074,344.6039" fill="none" style="stroke:#181818;stroke-width:1;"/></g><g class="link" data-entity-1="ent0001" data-entity-2="ent0010" data-link-type="dependency" id="lnk25"><polygon fill="#181818" points="227.7957,403.4756,221.1466,396.2099,223.213,401.4758,217.947,403.5422,227.7957,403.4756" style="stroke:#181818;stroke-width:1;stroke-linejoin:miter;stroke-miterlimit:10;"/><path d="M92.1942,361.4248 C114.6705,365.8668 142.6318,372.1746 167,380 C187.2495,386.5028 204.2655,393.2079 223.213,401.4758" fill="none" style="stroke:#181818;stroke-width:1;"/></g><g class="link" data-entity-1="ent0001" data-entity-2="ent0013" data-link-type="dependency" id="lnk26"><polygon fill="#181818" points="214.9622,577.8075,208.0047,570.8366,210.2972,576.0081,205.1257,578.3006,214.9622,577.8075" style="stroke:#181818;stroke-width:1;stroke-linejoin:miter;stroke-miterlimit:10;"/><path d="M56.5532,393.2968 C64.1399,428.1125 79.6973,478.4805 110,512 C137.9862,542.9572 174.9851,562.3873 210.2972,576.0081" fill="none" style="stroke:#181818;stroke-width:1;"/></g><g class="link" data-entity-1="ent0001" data-entity-2="ent0016" data-link-type="dependency" id="lnk27"><polygon fill="#181818" points="224.161,741.8735,218.0959,734.1137,219.7473,739.5241,214.3369,741.1756,224.161,741.8735" style="stroke:#181818;stroke-width:1;stroke-linejoin:miter;stroke-miterlimit:10;"/><path d="M52.6439,393.0535 C57.6551,448.4638 71.7253,551.9463 110,631 C129.8138,671.924 139.9189,681.0746 175,710 C189.7541,722.1652 203.0351,730.6283 219.7473,739.5241" fill="none" style="stroke:#181818;stroke-width:1;"/></g><g class="link" data-entity-1="ent0001" data-entity-2="ent0014" data-link-type="dependency" id="lnk28"><polygon fill="#181818" points="203.9377,648.5275,197.2438,641.3032,199.3427,646.5562,194.0897,648.6551,203.9377,648.5275" style="stroke:#181818;stroke-width:1;stroke-linejoin:miter;stroke-miterlimit:10;"/><path d="M56.534,393.2872 C64.7041,435.6199 81.2391,504.0346 110,557 C131.2098,596.0596 138.2687,607.9737 175,633 C183.8528,639.0317 189.1908,642.2009 199.3427,646.5562" fill="none" style="stroke:#181818;stroke-width:1;"/></g><g class="link" data-entity-1="ent0009" data-entity-2="ent0010" data-link-type="dependency" id="lnk30"><polygon fill="#181818" points="283,365.6846,279,374.6846,283,370.6846,287,374.6846,283,365.6846" style="stroke:#181818;stroke-width:1;stroke-linejoin:miter;stroke-miterlimit:10;"/><path d="M283,370.6846 C283,382.4853 283,391.4498 283,403.2575" fill="none" style="stroke:#181818;stroke-width:1;stroke-dasharray:7,7;"/><text fill="#000000" font-family="sans-serif" font-size="13" lengthAdjust="spacing" textLength="55.6563" x="242.5" y="389.9951">&#171;include&#187;</text></g><g class="link" data-entity-1="ent0016" data-entity-2="ent0017" data-link-type="dependency" id="lnk31"><polygon fill="#181818" points="469.7769,768,460.7769,764,464.7769,768,460.7769,772,469.7769,768" style="stroke:#181818;stroke-width:1;stroke-linejoin:miter;stroke-miterlimit:10;"/><path d="M371.2378,768 C402.8028,768 433.3871,768 464.7769,768" fill="none" style="stroke:#181818;stroke-width:1;stroke-dasharray:7,7;"/><text fill="#000000" font-family="sans-serif" font-size="13" lengthAdjust="spacing" textLength="55.6563" x="395" y="763.4951">&#171;include&#187;</text></g><g class="link" data-entity-1="ent0017" data-entity-2="ent0018" data-link-type="dependency" id="lnk32"><polygon fill="#181818" points="736.6668,768,727.6668,764,731.6668,768,727.6668,772,736.6668,768" style="stroke:#181818;stroke-width:1;stroke-linejoin:miter;stroke-miterlimit:10;"/><path d="M642.2715,768 C672.3423,768 701.2306,768 731.6668,768" fill="none" style="stroke:#181818;stroke-width:1;stroke-dasharray:7,7;"/><text fill="#000000" font-family="sans-serif" font-size="13" lengthAdjust="spacing" textLength="55.6563" x="662" y="763.4951">&#171;include&#187;</text></g><g class="link" data-entity-1="ent0017" data-entity-2="ent0002" data-link-type="dependency" id="lnk33"><polygon fill="#181818" points="793.1996,861.7787,786.3108,854.7399,788.5524,859.9336,783.3587,862.1753,793.1996,861.7787" style="stroke:#181818;stroke-width:1;stroke-linejoin:miter;stroke-miterlimit:10;"/><path d="M621.552,793.6292 C675.5872,815.0828 745.8697,842.9872 788.5524,859.9336" fill="none" style="stroke:#181818;stroke-width:1;"/></g><g class="link" data-entity-1="ent0006" data-entity-2="ent0016" data-link-type="dependency" id="lnk35"><polygon fill="#181818" points="190.8323,162.2811,181.059,163.4989,186.5494,164.8612,185.1871,170.3516,190.8323,162.2811" style="stroke:#181818;stroke-width:1;stroke-linejoin:miter;stroke-miterlimit:10;"/><path d="M186.5494,164.8612 C180.7117,168.3779 179.6195,169.995 175,175 C111.4475,243.8558 143.9295,288.7245 135,382 C121.0049,528.1894 91.6477,589.0885 175,710 C184.12,723.2296 197.2544,733.7005 211.242,741.8894" fill="none" style="stroke:#181818;stroke-width:1;stroke-dasharray:7,7;"/><text fill="#000000" font-family="sans-serif" font-size="13" lengthAdjust="spacing" textLength="53.4917" x="112" y="397.4951">&#171;extend&#187;</text></g><g class="link" data-entity-1="ent0007" data-entity-2="ent0016" data-link-type="dependency" id="lnk37"><polygon fill="#181818" points="192.4853,221.1441,182.6901,222.1705,188.1528,223.6399,186.6834,229.1026,192.4853,221.1441" style="stroke:#181818;stroke-width:1;stroke-linejoin:miter;stroke-miterlimit:10;"/><path d="M188.1528,223.6399 C181.6568,227.382 180.0298,229.4473 175,235 C127.9837,286.9048 126.2725,386.046 135,485 C143.9234,586.1752 115.4124,627.7482 175,710 C184.5519,723.1849 198.0392,733.6691 212.257,741.8893" fill="none" style="stroke:#181818;stroke-width:1;stroke-dasharray:7,7;"/><text fill="#000000" font-family="sans-serif" font-size="13" lengthAdjust="spacing" textLength="53.4917" x="112" y="480.4951">&#171;extend&#187;</text></g><?plantuml-src VLHBJzj04BxxLqnzQP0WnE6TqaWeYb0FL1KHDow3Tt2sh7VJVLIbLNzG3vouzPe_rbaxTh0ClLYQdU-R-URXURUoM9G82XzDyE1AygWnKNJlmHkmibXw4D9IxgNHYNkGUeKMIrXX_e05BVoZ8eXkr8MY9C7S6mlfXIYbbivR5CQcW0umlhJkBv_WqyMjlWhAoz88L3Lc9U7yt36FIfnEawGD3EcYVWL1S4dEo_MpXdbkzFgvb3d2O74vtqdXLmADD4W_h__cYWpSIuqwbsGD3Aw2yniSG72KesFapMnlT3A1Y-19Umvd7LM2RcQZapuocy0r5LLr5gGkB3dJmBC-VFmIJXtqk8y-dDJr6OtsLkVegJ1s_OIkuHpsEKSJc1djk9cHi-HKnifDJvbnr6SSJs0k9CFtIKaUJEJPMcGhxhXFE-WakaF5VIKeI9FTfZjWtk_avI2kQMMi9yTJMfgWnFuiVbyVmoah-n7XjQIQs8G-xU6pSKTIGu3lqWLKBJCRzqJDSEM3HM02xo8C_gFfZ7FKQ0ltnfjRpLk8sdZCunuswixwwaQn6XuyMH3eZUE96itf6bcZFYMB1TauZ9P3CSJwIPYsdAmgXmkgVYlOsvlMkzeniwuvxfe7NVEmQnvrpUEkUTerppeczpfv3tC5Iwaz3ECj6KvX40jFtpWiwIvKde-0riext84I-KValGBaMDME0sa-Kr1AnrSWDogK6k5R82351uXNda-3ul7oawSFu5ZF-e_QXKLzqu3ALVYwZOOG-D5H4RJOndkCAT2PNDQZXMvJm1f163CAYGNVmHWlj-4dQc5Wc_xDxHeciPbjKwgO4xvvKkSg2EAR5zi9mygNZNe-VjhuijTyKISVqMGJPPkbHlCUaHPjagrxt7N_0m00?></g></svg>