<svg xmlns="http://www.w3.org/2000/svg" xmlns:xlink="http://www.w3.org/1999/xlink" contentStyleType="text/css" data-diagram-type="DESCRIPTION" height="842px" preserveAspectRatio="none" style="width:950px;height:842px;background:#FFFFFF;" version="1.1" viewBox="0 0 950 842" width="950px" zoomAndPan="magnify"><?plantuml 1.2026.6?><defs/><g><!--cluster Sistema de Gesti?n Econ?mica (SGE)--><g class="cluster" data-qualified-name="Sistema de Gesti.n Econ.mica .SGE." data-source-line="21" id="ent0003"><rect fill="none" height="709" rx="2.5" ry="2.5" style="stroke:#181818;stroke-width:1;" width="759" x="175" y="12"/><text fill="#000000" font-family="sans-serif" font-size="14" font-weight="700" lengthAdjust="spacing" textLength="251.2891" x="428.8555" y="28.5332">Sistema de Gesti&#243;n Econ&#243;mica (SGE)</text></g><!--cluster N?cleo financiero (Must)--><g class="cluster" data-qualified-name="Sistema de Gesti.n Econ.mica .SGE..N.cleo financiero .Must." data-source-line="22" id="ent0004"><rect fill="none" height="407" rx="2.5" ry="2.5" style="stroke:#181818;stroke-width:1;" width="453" x="183" y="40"/><text fill="#000000" font-family="sans-serif" font-size="14" font-weight="700" lengthAdjust="spacing" textLength="163.3447" x="327.8276" y="56.5332">N&#250;cleo financiero (Must)</text></g><!--cluster Reportes (Should/Could)--><g class="cluster" data-qualified-name="Sistema de Gesti.n Econ.mica .SGE..Reportes .Should.Could." data-source-line="32" id="ent0012"><rect fill="none" height="162" rx="2.5" ry="2.5" style="stroke:#181818;stroke-width:1;" width="180" x="193" y="455"/><text fill="#000000" font-family="sans-serif" font-size="14" font-weight="700" lengthAdjust="spacing" textLength="164.876" x="200.562" y="471.5332">Reportes (Should/Could)</text></g><!--cluster Captura por IA (Could)--><g class="cluster" data-qualified-name="Sistema de Gesti.n Econ.mica .SGE..Captura por IA .Could." data-source-line="37" id="ent0015"><rect fill="none" height="88" rx="2.5" ry="2.5" style="stroke:#181818;stroke-width:1;" width="739" x="187" y="625"/><text fill="#000000" font-family="sans-serif" font-size="14" font-weight="700" lengthAdjust="spacing" textLength="150.0967" x="481.4517" y="641.5332">Captura por IA (Could)</text></g><!--entity admin--><g class="entity" data-qualified-name="admin" data-source-line="18" id="ent0001"><ellipse cx="49.1826" cy="345.5" fill="#F1F1F1" rx="8" ry="8" style="stroke:#181818;stroke-width:0.5;"/><path d="M49.1826,353.5 L49.1826,380.5 M36.1826,361.5 L62.1826,361.5 M49.1826,380.5 L36.1826,395.5 M49.1826,380.5 L62.1826,395.5" fill="none" style="stroke:#181818;stroke-width:0.5;"/><text fill="#000000" font-family="sans-serif" font-size="14" lengthAdjust="spacing" textLength="86.3652" x="6" y="411.5332">Administrador</text></g><!--entity api--><g class="entity" data-qualified-name="api" data-source-line="19" id="ent0002"><ellipse cx="827.3447" cy="755.6094" fill="#F1F1F1" rx="8" ry="8" style="stroke:#181818;stroke-width:0.5;"/><path d="M827.3447,763.6094 L827.3447,790.6094 M814.3447,771.6094 L840.3447,771.6094 M827.3447,790.6094 L814.3447,805.6094 M827.3447,790.6094 L840.3447,805.6094" fill="none" style="stroke:#181818;stroke-width:0.5;"/><text fill="#000000" font-family="sans-serif" font-size="14" lengthAdjust="spacing" textLength="39.6826" x="793.5" y="821.6426">API IA</text><text fill="#000000" font-family="sans-serif" font-size="14" lengthAdjust="spacing" textLength="67.6895" x="793.5" y="839.252">Multimodal</text><text fill="#000000" font-family="sans-serif" font-size="14" font-style="italic" lengthAdjust="spacing" textLength="63.8066" x="795.4414" y="744.0332">&#171;sistema&#187;</text></g><!--entity UC07--><g class="entity" data-qualified-name="Sistema de Gesti.n Econ.mica .SGE..N.cleo financiero .Must..UC07" data-source-line="23" id="ent0005"><ellipse cx="282.8798" cy="86.876" fill="#F1F1F1" rx="79.8798" ry="18.376" style="stroke:#181818;stroke-width:0.5;"/><text fill="#000000" font-family="sans-serif" font-size="14" lengthAdjust="spacing" textLength="126.0547" x="219.8525" y="92.1807">UC-07: Autenticarse</text></g><!--entity UC01--><g class="entity" data-qualified-name="Sistema de Gesti.n Econ.mica .SGE..N.cleo financiero .Must..UC01" data-source-line="24" id="ent0006"><ellipse cx="283.0587" cy="144.8117" fill="#F1F1F1" rx="92.0587" ry="20.8117" style="stroke:#181818;stroke-width:0.5;"/><text fill="#000000" font-family="sans-serif" font-size="14" lengthAdjust="spacing" textLength="154.834" x="205.6417" y="150.1164">UC-01: Registrar ingreso</text></g><!--entity UC02--><g class="entity" data-qualified-name="Sistema de Gesti.n Econ.mica .SGE..N.cleo financiero .Must..UC02" data-source-line="25" id="ent0007"><ellipse cx="283.2102" cy="205.042" fill="#F1F1F1" rx="90.7102" ry="20.542" style="stroke:#181818;stroke-width:0.5;"/><text fill="#000000" font-family="sans-serif" font-size="14" lengthAdjust="spacing" textLength="151.7236" x="207.3484" y="210.3467">UC-02: Registrar egreso</text></g><!--entity UC04--><g class="entity" data-qualified-name="Sistema de Gesti.n Econ.mica .SGE..N.cleo financiero .Must..UC04" data-source-line="26" id="ent0008"><ellipse cx="283.1323" cy="269.998" fill="#F1F1F1" rx="74.1323" ry="25.998" style="stroke:#181818;stroke-width:0.5;"/><text fill="#000000" font-family="sans-serif" font-size="14" lengthAdjust="spacing" textLength="108.9307" x="228.667" y="269.3149">UC-04: Gestionar</text><text fill="#000000" font-family="sans-serif" font-size="14" lengthAdjust="spacing" textLength="65.3721" x="250.4463" y="286.9242">categor&#237;as</text></g><!--entity UC05--><g class="entity" data-qualified-name="Sistema de Gesti.n Econ.mica .SGE..N.cleo financiero .Must..UC05" data-source-line="27" id="ent0009"><ellipse cx="556.2419" cy="395.0482" fill="#F1F1F1" rx="72.2419" ry="25.5482" style="stroke:#181818;stroke-width:0.5;"/><text fill="#000000" font-family="sans-serif" font-size="14" lengthAdjust="spacing" textLength="108.1514" x="502.1662" y="395.0746">UC-05: Consultar</text><text fill="#000000" font-family="sans-serif" font-size="14" lengthAdjust="spacing" textLength="48.2412" x="532.1213" y="412.684">historial</text></g><!--entity UC06--><g class="entity" data-qualified-name="Sistema de Gesti.n Econ.mica .SGE..N.cleo financiero .Must..UC06" data-source-line="28" id="ent0010"><ellipse cx="282.77" cy="339.8189" fill="#F1F1F1" rx="90.27" ry="25.3189" style="stroke:#181818;stroke-width:0.5;"/><text fill="#000000" font-family="sans-serif" font-size="14" lengthAdjust="spacing" textLength="137.71" x="213.915" y="340.2154">UC-06: Editar/eliminar</text><text fill="#000000" font-family="sans-serif" font-size="14" lengthAdjust="spacing" textLength="46.6826" x="259.4286" y="357.8247">registro</text></g><!--entity UC03--><g class="entity" data-qualified-name="Sistema de Gesti.n Econ.mica .SGE..N.cleo financiero .Must..UC03" data-source-line="29" id="ent0011"><ellipse cx="283.0421" cy="410.9369" fill="#F1F1F1" rx="78.0421" ry="27.4369" style="stroke:#181818;stroke-width:0.5;"/><text fill="#000000" font-family="sans-serif" font-size="14" lengthAdjust="spacing" textLength="108.1514" x="228.9664" y="408.1031">UC-03: Consultar</text><text fill="#000000" font-family="sans-serif" font-size="14" lengthAdjust="spacing" textLength="99.6338" x="233.2252" y="425.7124">balance general</text></g><!--entity UC08--><g class="entity" data-qualified-name="Sistema de Gesti.n Econ.mica .SGE..Reportes .Should.Could..UC08" data-source-line="33" id="ent0013"><ellipse cx="283.2234" cy="509.2109" fill="#F1F1F1" rx="68.2234" ry="25.7109" style="stroke:#181818;stroke-width:0.5;"/><text fill="#000000" font-family="sans-serif" font-size="14" lengthAdjust="spacing" textLength="101.1445" x="232.6511" y="508.9782">UC-08: Exportar</text><text fill="#000000" font-family="sans-serif" font-size="14" lengthAdjust="spacing" textLength="51.3584" x="257.5442" y="526.5876">reportes</text></g><!--entity UC12--><g class="entity" data-qualified-name="Sistema de Gesti.n Econ.mica .SGE..Reportes .Should.Could..UC12" data-source-line="34" id="ent0014"><ellipse cx="283.0692" cy="580.7714" fill="#F1F1F1" rx="79.0692" ry="27.7714" style="stroke:#181818;stroke-width:0.5;"/><text fill="#000000" font-family="sans-serif" font-size="14" lengthAdjust="spacing" textLength="108.1514" x="228.9935" y="577.4586">UC-12: Consultar</text><text fill="#000000" font-family="sans-serif" font-size="14" lengthAdjust="spacing" textLength="105.8271" x="230.1556" y="595.068">reportes visuales</text></g><!--entity UC09--><g class="entity" data-qualified-name="Sistema de Gesti.n Econ.mica .SGE..Captura por IA .Could..UC09" data-source-line="38" id="ent0016"><ellipse cx="283.0696" cy="679.0564" fill="#F1F1F1" rx="88.0696" ry="26.0564" style="stroke:#181818;stroke-width:0.5;"/><text fill="#000000" font-family="sans-serif" font-size="14" lengthAdjust="spacing" textLength="129.9443" x="218.0974" y="678.2827">UC-09: Capturar foto</text><text fill="#000000" font-family="sans-serif" font-size="14" lengthAdjust="spacing" textLength="80.1787" x="242.9802" y="695.892">de anotaci&#243;n</text></g><!--entity UC10--><g class="entity" data-qualified-name="Sistema de Gesti.n Econ.mica .SGE..Captura por IA .Could..UC10" data-source-line="39" id="ent0017"><ellipse cx="556.0922" cy="678.7547" fill="#F1F1F1" rx="86.0922" ry="25.2547" style="stroke:#181818;stroke-width:0.5;"/><text fill="#000000" font-family="sans-serif" font-size="14" lengthAdjust="spacing" textLength="131.4961" x="490.3441" y="679.256">UC-10: Extraer datos</text><text fill="#000000" font-family="sans-serif" font-size="14" lengthAdjust="spacing" textLength="39.6895" x="536.2474" y="696.8653">con IA</text></g><!--entity UC11--><g class="entity" data-qualified-name="Sistema de Gesti.n Econ.mica .SGE..Captura por IA .Could..UC11" data-source-line="40" id="ent0018"><ellipse cx="827.4357" cy="678.9875" fill="#F1F1F1" rx="90.4357" ry="25.4875" style="stroke:#181818;stroke-width:0.5;"/><text fill="#000000" font-family="sans-serif" font-size="14" lengthAdjust="spacing" textLength="136.9375" x="758.967" y="679.1113">UC-11: Corregir datos</text><text fill="#000000" font-family="sans-serif" font-size="14" lengthAdjust="spacing" textLength="57.5859" x="798.6427" y="696.7207">extra&#237;dos</text></g><g class="link" data-entity-1="ent0001" data-entity-2="ent0005" data-link-type="dependency" id="lnk19"><polygon fill="#181818" points="202.9365,101.4039,193.1115,100.7191,198.2373,103.112,195.8444,108.2379,202.9365,101.4039" style="stroke:#181818;stroke-width:1;stroke-linejoin:miter;stroke-miterlimit:10;"/><path d="M55.9139,336.693 C67.2141,277.0299 98.0059,165.2505 175,115 C183.5225,109.4378 188.4032,106.6866 198.2373,103.112" fill="none" style="stroke:#181818;stroke-width:1;"/></g><g class="link" data-entity-1="ent0001" data-entity-2="ent0006" data-link-type="dependency" id="lnk20"><polygon fill="#181818" points="191.5489,166.0791,181.7006,166.1818,187.0012,168.1573,185.0257,173.458,191.5489,166.0791" style="stroke:#181818;stroke-width:1;stroke-linejoin:miter;stroke-miterlimit:10;"/><path d="M62.6031,336.7457 C79.8985,289.7971 115.7756,212.8195 175,175 C180.2033,171.6773 181.2299,170.7947 187.0012,168.1573" fill="none" style="stroke:#181818;stroke-width:1;"/></g><g class="link" data-entity-1="ent0001" data-entity-2="ent0007" data-link-type="dependency" id="lnk21"><polygon fill="#181818" points="193.2849,225.5171,183.4363,225.4474,188.7016,227.5154,186.6335,232.7807,193.2849,225.5171" style="stroke:#181818;stroke-width:1;stroke-linejoin:miter;stroke-miterlimit:10;"/><path d="M75.0934,336.7942 C97.5456,304.8182 133.2925,260.8532 175,235 C180.7393,231.4424 182.3259,230.2951 188.7016,227.5154" fill="none" style="stroke:#181818;stroke-width:1;"/></g><g class="link" data-entity-1="ent0001" data-entity-2="ent0011" data-link-type="dependency" id="lnk22"><polygon fill="#181818" points="204.6714,410.4697,195.8786,406.0326,199.6774,410.2242,195.4859,414.023,204.6714,410.4697" style="stroke:#181818;stroke-width:1;stroke-linejoin:miter;stroke-miterlimit:10;"/><path d="M92.131,393.9296 C98.0482,395.9219 104.1183,397.698 110,399 C140.5413,405.7609 169.8149,408.7562 199.6774,410.2242" fill="none" style="stroke:#181818;stroke-width:1;"/></g><g class="link" data-entity-1="ent0001" data-entity-2="ent0008" data-link-type="dependency" id="lnk23"><polygon fill="#181818" points="208.5878,291.567,198.7795,290.6742,203.8534,293.1752,201.3525,298.2491,208.5878,291.567" style="stroke:#181818;stroke-width:1;stroke-linejoin:miter;stroke-miterlimit:10;"/><path d="M92.2873,344.9186 C98.1279,341.066 104.1357,337.3203 110,334 C140.7755,316.5752 172.4652,303.8368 203.8534,293.1752" fill="none" style="stroke:#181818;stroke-width:1;"/></g><g class="link" data-entity-1="ent0001" data-entity-2="ent0009" data-link-type="dependency" id="lnk24"><polygon fill="#181818" points="543.6841,420.6094,536.44,427.2819,541.6992,425.1986,543.7826,430.4578,543.6841,420.6094" style="stroke:#181818;stroke-width:1;stroke-linejoin:miter;stroke-miterlimit:10;"/><path d="M49.5306,415.1195 C51.0773,491.5092 67.205,658.1842 175,717 C283.0709,775.9663 357.2649,795.6232 452,717 C485.4045,689.2767 458.3147,662.8079 470,621 C490.8189,546.5134 523.7945,466.594 541.6992,425.1986" fill="none" style="stroke:#181818;stroke-width:1;"/></g><g class="link" data-entity-1="ent0001" data-entity-2="ent0010" data-link-type="dependency" id="lnk25"><polygon fill="#181818" points="192.3977,340.9806,183.1619,337.56,187.4078,341.298,183.6698,345.5439,192.3977,340.9806" style="stroke:#181818;stroke-width:1;stroke-linejoin:miter;stroke-miterlimit:10;"/><path d="M92.0866,357.2787 C98.0107,355.2017 104.0945,353.3521 110,352 C136.4067,345.9539 160.6485,343.0004 187.4078,341.298" fill="none" style="stroke:#181818;stroke-width:1;"/></g><g class="link" data-entity-1="ent0001" data-entity-2="ent0013" data-link-type="dependency" id="lnk26"><polygon fill="#181818" points="233.8152,483.4587,227.7859,475.671,229.4124,481.089,223.9944,482.7155,233.8152,483.4587" style="stroke:#181818;stroke-width:1;stroke-linejoin:miter;stroke-miterlimit:10;"/><path d="M92.2528,401.9778 C116.3467,416.6332 147.1945,435.1323 175,451 C194.0861,461.8918 210.9211,471.1366 229.4124,481.089" fill="none" style="stroke:#181818;stroke-width:1;"/></g><g class="link" data-entity-1="ent0001" data-entity-2="ent0016" data-link-type="dependency" id="lnk27"><polygon fill="#181818" points="224.1139,652.9304,218.0479,645.1714,219.6999,650.5816,214.2897,652.2337,224.1139,652.9304" style="stroke:#181818;stroke-width:1;stroke-linejoin:miter;stroke-miterlimit:10;"/><path d="M60.2543,415.2714 C70.1779,449.7467 87.0833,500.5582 110,541 C132.5858,580.8578 139.7434,591.7469 175,621 C189.7165,633.2106 202.9862,641.6875 219.6999,650.5816" fill="none" style="stroke:#181818;stroke-width:1;"/></g><g class="link" data-entity-1="ent0001" data-entity-2="ent0014" data-link-type="dependency" id="lnk28"><polygon fill="#181818" points="203.8258,560.2012,197.1874,552.9258,199.246,558.1948,193.9771,560.2534,203.8258,560.2012" style="stroke:#181818;stroke-width:1;stroke-linejoin:miter;stroke-miterlimit:10;"/><path d="M69.9511,415.0153 C91.2053,452.9585 128.2154,509.7437 175,544 C183.7224,550.3866 189.056,553.7304 199.246,558.1948" fill="none" style="stroke:#181818;stroke-width:1;"/></g><g class="link" data-entity-1="ent0010" data-entity-2="ent0009" data-link-type="dependency" id="lnk29"><polygon fill="#181818" points="483.8035,380.5505,475.7789,374.8404,478.9034,379.556,474.1877,382.6805,483.8035,380.5505" style="stroke:#181818;stroke-width:1;stroke-linejoin:miter;stroke-miterlimit:10;"/><path d="M373.8627,358.2378 C409.6077,365.4923 445.2502,372.7261 478.9034,379.556" fill="none" style="stroke:#181818;stroke-width:1;stroke-dasharray:7,7;"/><text fill="#000000" font-family="sans-serif" font-size="13" lengthAdjust="spacing" textLength="55.6563" x="395" y="358.4951">&#171;include&#187;</text></g><g class="link" data-entity-1="ent0016" data-entity-2="ent0017" data-link-type="dependency" id="lnk30"><polygon fill="#181818" points="469.7769,679,460.7769,675,464.7769,679,460.7769,683,469.7769,679" style="stroke:#181818;stroke-width:1;stroke-linejoin:miter;stroke-miterlimit:10;"/><path d="M371.2378,679 C402.8028,679 433.3871,679 464.7769,679" fill="none" style="stroke:#181818;stroke-width:1;stroke-dasharray:7,7;"/><text fill="#000000" font-family="sans-serif" font-size="13" lengthAdjust="spacing" textLength="55.6563" x="395" y="674.4951">&#171;include&#187;</text></g><g class="link" data-entity-1="ent0017" data-entity-2="ent0018" data-link-type="dependency" id="lnk31"><polygon fill="#181818" points="736.6668,679,727.6668,675,731.6668,679,727.6668,683,736.6668,679" style="stroke:#181818;stroke-width:1;stroke-linejoin:miter;stroke-miterlimit:10;"/><path d="M642.2715,679 C672.3423,679 701.2306,679 731.6668,679" fill="none" style="stroke:#181818;stroke-width:1;stroke-dasharray:7,7;"/><text fill="#000000" font-family="sans-serif" font-size="13" lengthAdjust="spacing" textLength="55.6563" x="662" y="674.4951">&#171;include&#187;</text></g><g class="link" data-entity-1="ent0017" data-entity-2="ent0002" data-link-type="dependency" id="lnk32"><polygon fill="#181818" points="793.1996,772.7787,786.3108,765.7399,788.5524,770.9336,783.3587,773.1753,793.1996,772.7787" style="stroke:#181818;stroke-width:1;stroke-linejoin:miter;stroke-miterlimit:10;"/><path d="M621.552,704.6292 C675.5872,726.0828 745.8697,753.9872 788.5524,770.9336" fill="none" style="stroke:#181818;stroke-width:1;"/></g><g class="link" data-entity-1="ent0006" data-entity-2="ent0016" data-link-type="dependency" id="lnk34"><polygon fill="#181818" points="190.9703,162.4101,181.1898,163.5686,186.6718,164.9642,185.2763,170.4462,190.9703,162.4101" style="stroke:#181818;stroke-width:1;stroke-linejoin:miter;stroke-miterlimit:10;"/><path d="M186.6718,164.9642 C180.8027,168.4515 179.6812,170.0527 175,175 C171.7447,178.4403 129.7266,292.725 136,373 C144.6931,484.2376 110.4454,529.994 175,621 C184.3583,634.1928 197.6786,644.6642 211.7838,652.8673" fill="none" style="stroke:#181818;stroke-width:1;stroke-dasharray:7,7;"/><text fill="#000000" font-family="sans-serif" font-size="13" lengthAdjust="spacing" textLength="53.4917" x="112" y="368.4951">&#171;extend&#187;</text></g><g class="link" data-entity-1="ent0007" data-entity-2="ent0016" data-link-type="dependency" id="lnk36"><polygon fill="#181818" points="192.2676,222.0971,182.4612,223.0105,187.9065,224.5428,186.3743,229.9882,192.2676,222.0971" style="stroke:#181818;stroke-width:1;stroke-linejoin:miter;stroke-miterlimit:10;"/><path d="M187.9065,224.5428 C181.5854,228.0877 180.0793,229.8968 175,235 C122.452,287.7953 129.5596,323.7897 136,398 C144.6992,498.2386 116.0855,539.4369 175,621 C184.5334,634.1983 198.0133,644.6879 212.2298,652.909" fill="none" style="stroke:#181818;stroke-width:1;stroke-dasharray:7,7;"/><text fill="#000000" font-family="sans-serif" font-size="13" lengthAdjust="spacing" textLength="53.4917" x="112" y="393.4951">&#171;extend&#187;</text></g><?plantuml-src VLGzRzim4DtrAwwUtC699N_45W83Xc446L8KCR9vkKfdcGX52YHLD2Zwap9bw-e_rgDbAI4KT17mUE_TlRiZzQKoM9G84bzqxS2Mv51X9EdWm6ameZWwo8MXp0cj8liiL8K6IwWmUyQ2Tkv54lWmga9I567cj871EY-54jOPpBKP05f0VzA5lz_3_Ngl7chfHAbpb0sd4d1xQrb79QvMKTGbXi6kEOMSu8wi4wSt1TjCgzDRAJA4uUvk-tK0loDehS7Ws-bl9ad3GIXKcI2ZOVXGMtVX0TIMChJCVDgCnZSfh6j7od4wO-biw6aplkapunGUgJXtPq2emf3LBJtkqvEFT0hOIPyzJPl-j4ApLnawAhGvlQ9jDTE-PfR2HYlBm_IQ8vVIHbncoefPNp5FOPiBfb-J5BmOhpEDoSxSl2-R18L-eEIv4XIaoBoNcx3kJ_Hn4OzKQUF8yfQEkfRvzSP_Fr_3WftzylJ6KYDiKozw_3W9BBK2-2biZR9JnadFr0OhLni45l1TXE5_F2svHiCsSD1ExnNVGbJQOURlOUjksNStzjtmuib0ZavRtgXMNAwrDUvBOj-GySleDEHJd5vptRKJdzlXXixF2aQZLNDN0nY7C0dX98JJ4Cv2E0_X8eJB0FAi8o-1gwic5QJygeNAP9qJlselkCJYSI_6HvTO_5dCb-3VH7J9udzKJPM6pPCYbNT5tiD96Fu7?></g></svg>